<?xml version="1.0" standalone="no"?>
<!DOCTYPE svg PUBLIC "-//W3C//DTD SVG 20010904//EN"
 "http://www.w3.org/TR/2001/REC-SVG-20010904/DTD/svg10.dtd">
<svg version="1.0" xmlns="http://www.w3.org/2000/svg"
 width="1000.000000pt" height="667.000000pt" viewBox="0 0 1000.000000 667.000000"
 preserveAspectRatio="xMidYMid meet">
<metadata>
Created by potrace 1.16, written by Peter Selinger 2001-2019
</metadata>
<g transform="translate(0.000000,667.000000) scale(0.100000,-0.100000)"
fill="#000000" stroke="none">
<path d="M297 6629 c-3 -22 -3 -73 0 -113 4 -48 0 -95 -10 -142 -9 -38 -19
-115 -22 -169 -3 -55 -8 -114 -11 -130 -5 -39 -42 -61 -114 -68 -30 -3 -73
-11 -95 -19 -36 -12 -40 -17 -43 -50 -3 -37 -3 -37 25 -29 15 5 58 12 94 15
80 6 101 -5 104 -58 1 -20 5 -40 9 -43 3 -3 6 -16 6 -28 0 -19 7 -23 46 -29
26 -3 59 -6 74 -6 16 0 30 -7 34 -16 8 -20 26 -9 26 16 0 10 12 27 26 37 19
14 27 32 34 73 5 30 16 82 24 115 9 33 16 75 16 92 0 34 -8 39 -75 45 -30 3
-30 3 -27 58 4 57 25 95 49 86 7 -3 13 -2 13 3 0 11 62 12 80 1 10 -6 15 -25
15 -55 0 -25 2 -45 5 -45 3 0 22 5 43 11 44 12 61 3 65 -34 1 -17 -4 -26 -18
-30 -31 -8 -57 -81 -69 -189 -6 -54 -11 -102 -11 -108 0 -18 29 -11 40 10 6
11 18 20 26 20 9 0 25 11 36 26 16 20 28 24 56 22 42 -3 49 -20 51 -106 1 -37
5 -54 16 -58 26 -10 202 7 221 21 18 12 17 14 -1 50 -28 52 -70 85 -109 85
-23 0 -41 9 -61 30 l-29 30 20 27 c11 15 34 31 50 35 47 14 336 39 371 33 24
-4 34 -1 41 12 15 29 23 91 13 97 -5 3 -35 0 -68 -8 -85 -22 -310 -48 -343
-41 -16 3 -31 13 -34 21 -3 8 0 88 6 178 9 131 8 171 -2 195 -15 36 -21 38
-45 11 -10 -11 -28 -20 -40 -20 -30 0 -63 -39 -67 -80 -2 -27 -8 -36 -24 -38
-11 -2 -34 -15 -51 -31 -30 -27 -30 -27 -44 -7 -17 27 -69 126 -69 132 0 2 11
4 24 4 31 0 40 24 24 66 -10 28 -9 38 8 70 10 20 28 42 39 50 17 12 -4 14
-161 14 l-181 0 -6 -41z"/>
<path d="M5958 6654 c-39 -21 -250 -36 -358 -26 -38 4 -284 -22 -319 -34 -11
-4 -12 -7 -3 -16 17 -17 15 -45 -4 -52 -21 -8 -44 11 -44 35 0 15 -7 19 -37
19 -21 0 -56 -6 -78 -12 -22 -6 -85 -13 -140 -14 -55 -1 -106 -3 -113 -3 -7
-1 -17 -13 -22 -27 -9 -23 -15 -26 -48 -21 -20 2 -66 0 -102 -6 -36 -5 -128
-11 -205 -12 -176 -3 -311 -12 -325 -20 -6 -4 -16 -18 -21 -32 -7 -20 -15 -24
-34 -21 -14 3 -30 -1 -36 -8 -13 -16 -55 -19 -64 -4 -3 6 -1 10 5 10 6 0 18 7
26 15 14 13 8 15 -49 15 -75 0 -218 -17 -265 -32 -23 -7 -32 -15 -28 -24 3 -8
9 -20 12 -28 7 -19 -23 -46 -51 -46 -19 0 -24 6 -27 32 -2 22 -9 32 -23 34
-80 13 -125 15 -141 6 -18 -10 -17 -11 8 -21 70 -27 37 -62 -70 -74 -84 -9
-150 -9 -164 -1 -4 3 -4 13 2 24 7 13 6 21 -5 30 -19 15 -45 16 -124 2 -65
-12 -106 -32 -63 -32 28 0 28 -16 1 -30 -27 -15 -49 -6 -49 20 0 26 -26 26
-33 0 -3 -11 -11 -20 -17 -20 -10 0 -10 3 -1 14 9 11 5 15 -23 20 -18 4 -45 2
-60 -4 -24 -9 -68 -11 -162 -10 -17 0 -51 -8 -76 -19 -44 -18 -66 -20 -127 -6
-40 9 -141 -35 -141 -61 0 -16 -1 -16 -14 1 -8 11 -20 16 -29 12 -9 -3 -41 -1
-70 5 -45 10 -64 9 -111 -4 -41 -12 -65 -14 -89 -7 -41 12 -83 11 -121 -1 -17
-5 -58 -16 -91 -24 -33 -7 -64 -15 -70 -17 -5 -1 -27 1 -47 5 -20 5 -58 3 -85
-2 -54 -12 -76 -1 -87 44 -11 44 -42 30 -70 -31 -40 -88 -51 -177 -25 -210 4
-5 1 -28 -8 -50 -24 -66 -45 -136 -41 -140 2 -2 31 -5 66 -7 77 -3 83 4 75 89
-5 52 -3 67 12 83 10 11 24 20 32 20 20 0 40 -54 48 -134 9 -86 12 -96 35 -96
32 0 61 33 65 72 2 21 7 43 11 49 4 7 1 17 -7 23 -8 6 -21 25 -29 41 -9 17
-26 34 -38 40 -28 12 -28 22 0 46 47 40 77 49 180 55 144 7 177 11 191 22 12
9 140 22 272 27 39 2 120 8 180 15 201 21 503 50 570 55 28 2 156 13 285 24
254 23 298 27 465 36 61 3 128 10 150 16 22 5 85 12 140 15 106 6 113 7 300
24 66 6 140 13 165 15 25 2 119 11 210 19 198 19 414 35 530 42 47 2 137 9
200 15 63 6 147 13 185 14 39 2 77 6 85 9 24 8 238 27 351 31 58 2 116 6 129
10 14 3 61 8 105 10 44 3 123 10 175 15 52 6 116 8 142 5 27 -3 49 -1 53 5 8
13 85 13 85 0 0 -15 19 -12 36 5 9 9 34 15 60 15 32 0 44 -4 44 -15 0 -21 13
-19 28 5 7 11 23 20 37 20 32 0 41 -35 26 -96 -7 -26 -10 -48 -7 -51 5 -5 23
49 32 100 6 38 27 57 63 57 61 0 35 -119 -53 -245 -50 -70 -59 -85 -52 -85 3
0 36 47 74 104 55 82 71 115 77 155 4 28 14 58 22 66 19 19 57 19 73 0 19 -23
-13 -130 -61 -208 -42 -66 -72 -127 -67 -133 6 -5 85 119 118 185 16 32 33 82
37 112 8 52 9 54 46 63 50 13 73 -1 69 -40 -7 -66 -26 -107 -83 -181 -83 -108
-91 -121 -87 -133 5 -17 145 160 169 215 12 26 24 68 28 94 4 31 11 46 21 46
11 0 15 -11 14 -40 -2 -62 -20 -114 -69 -195 -24 -41 -45 -81 -45 -87 0 -31
19 -6 68 85 51 93 65 133 77 215 l6 37 49 0 c50 0 50 0 50 -32 0 -61 -29 -140
-79 -223 -48 -78 -63 -113 -42 -101 5 4 37 54 71 112 50 85 65 121 74 178 l12
71 70 7 c38 5 147 11 242 15 l172 8 0 -31 c0 -52 -28 -130 -75 -205 -42 -69
-56 -121 -36 -133 9 -6 127 195 147 253 7 20 13 55 14 79 0 41 1 42 33 42 19
0 75 3 124 6 l91 7 -5 -29 c-14 -93 -38 -184 -64 -241 -27 -60 -28 -69 -22
-154 4 -54 9 -85 14 -77 5 7 9 23 9 36 0 12 4 22 8 22 5 0 7 12 5 28 -3 16 11
67 32 122 42 109 65 198 65 253 0 44 11 51 108 61 l62 7 0 -33 c0 -53 -26
-135 -66 -211 -44 -84 -56 -128 -39 -144 9 -8 11 -36 8 -95 l-6 -83 50 3 50 4
6 72 c4 40 10 82 13 92 7 19 7 19 -14 0 -12 -11 -22 -30 -22 -43 0 -13 -4 -21
-10 -18 -5 3 -7 0 -5 -8 3 -7 -6 -26 -20 -43 l-25 -29 0 82 c0 79 2 88 56 203
42 91 57 136 61 183 3 34 11 65 17 69 15 10 64 10 70 0 13 -22 -18 -174 -56
-269 -37 -92 -40 -106 -28 -128 9 -17 11 -46 7 -100 -6 -69 -5 -75 12 -75 10
0 24 -7 31 -15 16 -20 29 -19 37 3 9 23 43 53 54 46 5 -3 18 0 29 6 16 9 20 8
20 -5 0 -8 7 -15 15 -15 8 0 15 -5 15 -10 0 -6 14 -9 30 -8 26 2 30 6 31 33 1
29 1 29 8 5 6 -20 9 -11 16 40 9 77 20 110 36 110 9 0 10 -28 6 -107 -4 -60
-3 -103 1 -97 4 6 40 19 80 29 l72 19 0 56 c0 58 15 120 30 120 12 0 18 -46
14 -118 -3 -47 -1 -60 5 -42 5 14 10 50 10 80 2 65 8 92 55 225 19 55 38 130
41 168 7 63 6 67 -13 67 -17 0 -21 -11 -32 -87 -13 -90 -67 -232 -78 -203 -6
17 -43 54 -69 68 -15 9 -15 17 -5 80 18 106 16 142 -7 142 -15 0 -20 -11 -25
-67 -4 -38 -13 -83 -19 -102 -10 -30 -17 -35 -47 -38 -19 -2 -48 -9 -65 -15
-35 -13 -107 -77 -99 -89 8 -13 -58 -42 -99 -43 -46 -1 -46 1 -7 115 17 49 33
119 37 156 3 37 11 71 17 75 6 4 -373 8 -841 8 -562 0 -853 -3 -853 -10 0 -5
-9 -10 -20 -10 -11 0 -20 5 -20 10 0 14 -113 13 -127 -1 -9 -9 -20 -9 -44 0
-17 6 -47 11 -65 11 -26 0 -33 -4 -36 -22 -2 -13 -10 -23 -18 -23 -8 0 -19 10
-25 23 -13 30 -65 32 -65 2 0 -11 -7 -23 -15 -26 -19 -8 -48 15 -41 33 4 9 -3
13 -23 13 -25 0 -27 -3 -23 -30 4 -25 1 -30 -16 -30 -25 0 -44 23 -36 44 6 14
-14 16 -210 16 -201 0 -216 -1 -216 -18 0 -10 5 -23 12 -30 17 -17 -8 -42 -42
-42 -26 0 -28 2 -26 45 l1 45 -50 -1 c-27 -1 -62 -7 -77 -15z"/>
<path d="M9857 6605 c-10 -40 -38 -102 -74 -162 -73 -124 -76 -131 -59 -149
18 -17 26 -18 26 -1 0 7 24 53 53 103 63 108 94 175 106 232 8 40 8 42 -14 42
-19 0 -24 -9 -38 -65z"/>
<path d="M1547 5546 c-40 -43 -66 -55 -98 -49 -20 4 -32 -3 -57 -31 -17 -20
-38 -36 -46 -36 -8 0 -26 -20 -40 -44 -27 -47 -88 -102 -144 -130 -18 -10 -35
-23 -38 -31 -10 -24 -61 -39 -92 -26 -45 19 -96 73 -135 142 -36 65 -75 114
-83 106 -3 -3 0 -44 6 -93 6 -49 10 -118 9 -154 -2 -46 2 -74 14 -98 10 -18
15 -37 12 -42 -8 -13 10 -13 33 0 16 8 39 19 157 70 22 10 54 30 70 46 31 29
75 53 207 109 101 43 206 114 262 176 50 56 56 77 28 102 -25 23 -28 22 -65
-17z"/>
<path d="M7440 5532 c-14 -9 -42 -29 -62 -45 -19 -15 -64 -39 -99 -53 -35 -14
-82 -34 -104 -44 -22 -10 -112 -43 -200 -73 -169 -58 -243 -88 -339 -139 -48
-25 -60 -28 -68 -17 -8 11 -9 10 -4 -3 6 -21 -13 -36 -24 -18 -5 9 -9 9 -14 1
-4 -6 -15 -11 -25 -11 -22 0 -65 -45 -56 -60 3 -6 3 -9 -2 -8 -23 6 -115 -17
-163 -42 -111 -56 -151 -79 -189 -109 -21 -17 -44 -31 -50 -31 -6 0 -11 -4
-11 -9 0 -5 -19 -16 -42 -26 -105 -41 -143 -90 -173 -222 -22 -95 -42 -290
-35 -328 3 -16 3 -80 -1 -142 -6 -106 -9 -115 -41 -165 -59 -90 -77 -121 -99
-168 -12 -25 -47 -85 -79 -135 -31 -49 -62 -104 -69 -122 -7 -17 -22 -40 -33
-50 -11 -10 -38 -53 -59 -95 -38 -76 -39 -79 -38 -185 1 -157 18 -232 87 -387
12 -27 22 -50 22 -52 0 -14 100 -236 142 -314 28 -52 52 -110 52 -128 1 -18 6
-36 12 -40 5 -4 9 -29 10 -57 0 -27 1 -68 3 -90 3 -62 -8 -244 -19 -303 -5
-29 -9 -56 -8 -60 2 -7 -10 -76 -18 -104 -3 -10 2 -18 13 -20 16 -3 16 -5 -4
-23 -25 -21 -31 -61 -11 -67 9 -3 8 -15 -6 -46 -10 -22 -16 -51 -13 -62 4 -17
2 -21 -12 -17 -14 3 -17 -3 -16 -32 0 -20 7 -41 15 -48 13 -10 12 -14 -7 -35
-24 -25 -31 -72 -13 -83 6 -3 10 3 10 14 0 12 7 21 15 21 8 0 15 -4 15 -10 0
-5 -4 -10 -8 -10 -5 0 -6 -14 -4 -31 3 -22 1 -30 -7 -25 -6 4 -11 1 -11 -8 0
-9 5 -16 11 -16 7 0 8 -11 4 -29 -3 -16 -2 -32 4 -35 6 -4 6 -18 1 -35 -5 -19
-4 -33 3 -41 7 -6 8 -11 2 -10 -19 4 -35 0 -35 -9 0 -5 9 -7 20 -4 22 6 28
-12 8 -21 -10 -5 -10 -7 0 -12 16 -8 15 -29 -3 -44 -8 -7 -15 -16 -15 -21 0
-5 7 -9 15 -9 18 0 20 -17 3 -22 -7 -3 -12 -34 -14 -85 -1 -45 -10 -111 -19
-147 -13 -50 -14 -74 -6 -96 8 -25 7 -31 -9 -40 -24 -13 -15 -40 14 -41 16 -1
14 -3 -10 -11 -24 -8 -31 -16 -31 -37 0 -14 -2 -43 -5 -64 -3 -21 -2 -40 2
-42 4 -3 5 -20 1 -38 -6 -23 -4 -37 6 -45 19 -19 16 -42 -7 -42 -11 0 -20 -4
-20 -10 0 -5 -5 -9 -11 -7 -6 1 -14 -4 -16 -11 -4 -11 -1 -12 17 -2 12 6 28 9
36 6 16 -6 19 -42 4 -51 -5 -3 -10 -13 -10 -21 0 -8 -9 -25 -20 -37 -11 -12
-18 -27 -16 -34 4 -9 -4 -13 -20 -13 -20 0 -25 -4 -20 -16 3 -9 6 -18 6 -20 0
-2 173 -4 384 -4 l384 0 6 28 c5 25 19 125 21 147 0 6 9 9 20 7 19 -2 19 -2 2
8 -19 12 -20 9 13 180 10 52 35 187 54 300 20 113 41 230 47 260 33 166 60
332 86 528 11 82 22 132 29 132 7 0 11 6 11 13 -2 18 12 149 29 257 7 52 14
147 14 210 0 74 6 137 16 175 9 33 22 85 29 115 19 81 51 191 65 225 26 65 99
523 107 675 3 64 9 99 19 106 13 11 59 192 68 269 2 12 12 61 31 140 18 77 62
270 81 360 31 143 48 210 55 219 4 5 5 0 3 -11 -3 -12 -1 -24 5 -27 6 -4 11 0
11 9 0 28 37 71 89 104 39 25 56 46 86 103 43 83 42 94 -16 186 -21 35 -39 66
-39 69 0 17 104 132 139 153 23 14 71 45 109 69 60 40 225 123 387 195 58 26
59 28 37 40 -21 11 -22 14 -8 25 40 33 6 40 -66 14 l-47 -17 -21 27 c-12 15
-25 27 -29 27 -5 0 -32 -23 -60 -50 -43 -42 -50 -53 -41 -69 13 -26 50 -17 43
10 -5 18 -3 19 20 8 32 -14 25 -36 -14 -44 -16 -4 -29 -11 -29 -16 0 -14 -20
-11 -20 4 -1 6 -9 30 -20 52 -11 22 -19 52 -20 68 0 38 -36 136 -62 171 l-21
30 21 14 c26 17 28 37 6 46 -9 3 -16 6 -17 5 -1 0 -13 -8 -27 -17z m-1440
-951 c3 -4 18 -24 33 -43 l28 -37 -50 -83 c-28 -46 -57 -100 -65 -119 -8 -19
-25 -44 -38 -56 l-24 -23 7 58 c4 31 8 92 8 134 1 42 6 80 11 83 6 3 10 17 10
29 0 15 10 31 27 41 26 17 26 19 8 27 -14 6 -11 7 10 2 16 -3 32 -9 35 -13z
m22 -2159 c-7 -2 -12 -14 -12 -27 0 -12 -6 -28 -14 -34 -7 -6 -11 -22 -9 -35
3 -13 0 -27 -6 -30 -14 -9 -15 -46 -1 -46 6 0 10 5 10 12 0 6 3 9 6 5 4 -3 -1
-25 -11 -49 -13 -35 -14 -44 -3 -53 16 -12 19 -41 7 -72 -5 -14 -5 -23 1 -23
6 0 10 6 10 13 1 7 6 5 14 -5 7 -10 16 -15 19 -11 4 3 7 -1 7 -11 0 -9 -4 -14
-10 -11 -6 4 -10 -7 -10 -24 0 -31 14 -42 24 -18 3 6 3 -14 2 -46 -2 -31 -10
-65 -17 -74 -13 -15 -11 -16 16 -10 17 3 25 4 18 1 -7 -3 -15 -22 -19 -42 -4
-20 -16 -47 -27 -60 -14 -15 -18 -26 -11 -30 20 -13 24 -43 9 -65 -8 -12 -15
-17 -15 -12 0 5 -6 0 -14 -11 -8 -10 -13 -20 -11 -22 6 -6 55 22 55 32 0 6 12
19 25 29 25 18 24 17 -4 -25 -24 -35 -27 -44 -15 -51 18 -10 18 -27 0 -27 -7
0 -16 -10 -18 -23 -5 -28 1 -49 12 -42 5 3 3 -8 -3 -25 -6 -16 -17 -30 -24
-30 -12 0 -12 -44 2 -86 5 -15 1 -28 -13 -40 -21 -21 -38 -74 -23 -74 5 0 13
5 16 10 3 6 15 10 25 10 11 0 21 9 23 23 6 26 -2 -81 -9 -135 -3 -21 -9 -37
-12 -36 -12 2 -47 -15 -63 -31 -9 -9 -35 -32 -58 -51 -22 -19 -41 -40 -41 -48
0 -7 -8 -15 -17 -19 -10 -3 -25 -12 -33 -18 -8 -7 -33 -16 -54 -19 l-39 -7 6
53 c3 29 13 67 22 85 17 33 11 129 -6 101 -6 -8 -8 4 -8 32 0 34 2 40 9 25 6
-13 9 13 9 75 0 157 10 342 22 400 39 199 85 415 115 540 l35 145 57 21 c36
13 58 17 61 10 2 -5 -1 -12 -7 -14z"/>
<path d="M531 5507 c-6 -14 -26 -119 -46 -234 -20 -114 -47 -264 -60 -333 -14
-69 -29 -147 -35 -175 -20 -101 -34 -225 -26 -232 10 -11 26 17 26 48 0 15 10
58 22 95 12 39 22 96 22 130 1 49 7 69 31 109 36 58 110 114 162 122 21 3 52
18 70 32 18 14 46 37 63 50 19 14 27 27 21 30 -6 4 -16 74 -22 156 -6 85 -18
164 -26 181 -13 30 -17 32 -71 32 -31 -1 -72 3 -89 7 -29 6 -34 4 -42 -18z"/>
<path d="M389 5510 c-9 -5 -49 -11 -89 -13 -40 -3 -75 -9 -79 -14 -8 -12 -94
-42 -149 -52 -78 -14 -72 67 -70 -951 l3 -915 24 70 c13 39 37 102 53 140 17
39 34 84 40 100 6 17 16 41 23 55 25 48 56 135 76 214 l20 80 -23 18 c-13 10
-28 18 -34 18 -6 0 -19 9 -29 20 -25 28 -13 68 23 75 68 14 77 20 80 50 1 17
20 136 42 265 21 129 50 307 64 395 14 88 35 217 46 288 15 94 18 132 10 147
-12 23 -10 22 -31 10z"/>
<path d="M4679 5484 c-6 -8 -17 -14 -24 -14 -22 0 -47 -37 -43 -67 3 -25 7
-28 38 -28 31 0 36 4 45 33 9 31 12 33 40 27 16 -3 66 -10 110 -14 64 -7 85
-6 104 6 23 15 22 15 -45 38 -86 28 -209 38 -225 19z"/>
<path d="M5971 5414 c-46 -36 -96 -68 -112 -71 -16 -3 -38 -16 -47 -28 -16
-20 -175 -105 -197 -105 -4 0 -29 -13 -54 -29 -26 -15 -58 -32 -72 -36 -13 -4
-69 -30 -123 -57 -55 -27 -125 -60 -156 -73 -144 -61 -258 -119 -287 -147 -17
-16 -47 -40 -65 -52 -91 -57 -143 -150 -154 -276 -3 -30 -11 -77 -19 -105 -8
-27 -16 -72 -19 -100 -8 -71 -17 -109 -29 -116 -5 -4 -4 -15 3 -29 13 -24 -2
-144 -22 -167 -6 -8 -8 -30 -4 -53 5 -31 3 -42 -9 -46 -17 -7 -21 -34 -5 -34
14 0 13 -63 -2 -78 -6 -6 -13 -42 -15 -79 -1 -37 -6 -75 -9 -83 -9 -21 -23
-132 -28 -222 -2 -42 -7 -81 -10 -86 -7 -12 -19 -157 -18 -219 1 -35 -4 -57
-14 -68 -10 -9 -13 -23 -9 -36 4 -13 1 -27 -10 -39 -12 -13 -14 -23 -7 -37 11
-21 7 -96 -8 -122 -5 -10 -7 -27 -4 -39 4 -11 1 -44 -5 -73 -10 -45 -18 -120
-24 -239 -2 -19 -6 -40 -10 -47 -4 -7 -10 -63 -13 -125 -4 -99 -7 -115 -26
-129 -15 -11 -17 -18 -9 -24 7 -4 10 -18 6 -33 -3 -15 -6 -47 -7 -72 0 -25 -4
-49 -8 -55 -4 -5 -7 -17 -7 -25 -1 -8 -4 -35 -8 -60 -3 -25 -8 -61 -10 -82 -1
-20 -8 -52 -15 -72 -6 -20 -9 -40 -6 -45 4 -5 1 -22 -4 -37 -6 -15 -12 -48
-14 -73 -2 -25 -14 -100 -25 -166 -12 -66 -26 -149 -31 -185 -12 -78 -17 -111
-29 -170 -6 -25 -17 -88 -26 -140 -9 -52 -21 -113 -27 -135 -7 -22 -11 -46 -9
-53 1 -8 -3 -37 -9 -65 -7 -29 -16 -83 -20 -122 -5 -38 -19 -122 -30 -185 -38
-198 -40 -213 -46 -293 -5 -64 -4 -77 9 -77 16 0 14 -7 87 350 39 194 62 325
160 895 22 132 54 308 70 390 60 308 135 796 230 1485 36 259 70 431 142 720
43 173 60 223 108 320 32 63 61 131 65 150 4 19 11 40 14 45 4 6 16 33 26 60
24 65 72 162 100 200 12 17 37 58 55 93 21 40 59 87 106 132 64 60 97 81 256
161 203 101 290 149 360 197 53 36 67 38 109 16 30 -15 33 -14 185 60 85 42
154 82 154 89 0 8 9 22 20 32 27 24 25 30 -12 46 -18 7 -37 19 -41 26 -10 16
-61 17 -87 1 -15 -10 -26 -10 -53 0 -18 7 -40 12 -48 11 -8 -1 -52 -30 -98
-65z"/>
<path d="M4282 5403 c-10 -4 -10 -8 -2 -18 16 -19 -64 -129 -87 -121 -8 3 -17
6 -19 6 -2 0 -4 14 -4 31 0 28 -3 31 -22 25 -13 -3 -42 -6 -65 -6 -31 0 -41
-3 -37 -14 3 -7 -6 -21 -20 -30 -17 -10 -26 -26 -26 -42 0 -14 -7 -38 -15 -54
-14 -26 -16 -51 -15 -159 0 -14 2 -26 4 -28 8 -8 71 25 90 46 11 11 29 21 42
21 13 0 29 8 36 19 7 10 30 23 51 29 20 6 59 24 86 40 51 32 151 53 208 45 18
-3 45 -2 60 2 25 6 26 8 10 16 -13 8 -16 18 -12 43 5 27 3 34 -17 43 -13 7
-32 13 -43 15 -15 2 -21 13 -25 43 -4 31 -9 40 -24 40 -16 0 -20 -7 -20 -35
-1 -33 -3 -35 -34 -33 -69 3 -85 11 -80 44 5 32 1 39 -20 32z"/>
<path d="M9970 5366 c-19 -18 -328 -173 -431 -215 -42 -18 -102 -47 -134 -66
-66 -40 -65 -40 -65 -21 0 7 -7 20 -16 27 -15 12 -16 11 -10 -8 8 -25 -10 -41
-27 -24 -15 15 -27 14 -27 -4 0 -8 -4 -15 -9 -15 -5 0 -37 -20 -72 -43 -35
-24 -70 -42 -77 -40 -7 3 -11 -1 -10 -7 2 -7 -8 -14 -22 -16 -13 -3 -27 -8
-30 -13 -3 -4 -18 -15 -35 -24 -16 -8 -40 -25 -52 -36 -12 -12 -27 -21 -33
-21 -5 0 -10 -7 -10 -15 0 -8 -9 -15 -21 -15 -16 0 -19 -4 -14 -20 5 -14 2
-20 -9 -20 -9 0 -16 -4 -16 -10 0 -5 -7 -10 -17 -10 -22 0 -83 -48 -83 -66 0
-8 -5 -22 -11 -32 -13 -21 -1 -93 16 -99 6 -1 22 16 37 40 33 53 79 95 153
142 30 20 55 39 55 43 0 19 165 175 203 192 48 22 114 25 138 7 18 -14 54
-205 45 -235 -4 -11 -46 -43 -94 -72 -48 -29 -94 -59 -102 -65 -8 -7 -27 -15
-41 -19 -39 -9 -50 -76 -13 -76 8 0 14 4 14 9 0 5 9 11 19 14 23 6 31 -16 31
-89 0 -48 -3 -54 -41 -85 -95 -78 -99 -79 -171 -79 l-69 0 23 -30 c12 -16 28
-30 35 -30 7 0 13 -6 13 -12 0 -7 15 -20 33 -28 32 -15 44 -49 20 -57 -7 -3
-10 3 -6 15 3 12 -2 22 -13 26 -21 8 -31 -1 -16 -16 6 -6 8 -24 5 -41 l-6 -29
26 17 c31 20 43 15 50 -21 3 -18 -3 -33 -19 -51 -28 -30 -30 -43 -9 -43 8 0
15 5 15 10 0 6 5 10 11 10 8 0 9 -13 4 -42 -4 -24 -7 -62 -6 -85 1 -23 -2 -44
-7 -47 -5 -3 -6 -27 -2 -53 5 -26 4 -53 -1 -59 -5 -6 -3 -26 3 -47 9 -29 8
-47 -7 -93 -13 -43 -15 -61 -7 -75 6 -9 8 -33 5 -53 -4 -26 -2 -36 7 -36 13 0
12 -24 -4 -192 -3 -40 -16 -47 -16 -9 0 18 -4 30 -9 26 -6 -3 -9 -22 -7 -42 5
-49 -2 -70 -25 -76 -14 -4 -19 -14 -19 -39 0 -18 -5 -40 -10 -48 -7 -12 -10
-8 -10 14 0 37 21 106 32 106 4 0 8 7 8 15 0 8 -7 15 -16 15 -11 0 -15 6 -11
20 3 11 1 20 -4 20 -5 0 -9 -4 -9 -10 0 -5 -4 -10 -9 -10 -14 0 -23 39 -25
110 -2 36 -5 72 -9 80 -3 8 -8 40 -11 70 l-5 55 19 -24 c13 -15 20 -18 20 -9
0 8 -3 18 -7 22 -14 14 -31 86 -22 92 5 3 9 18 9 33 0 15 5 32 10 37 13 13 18
144 6 162 -4 7 -8 40 -8 73 0 46 -3 59 -13 55 -7 -2 -16 2 -19 10 -8 21 20 84
37 84 9 0 14 10 13 30 -1 35 -22 40 -32 8 -8 -27 -44 -76 -44 -61 0 6 7 27 15
47 10 22 11 36 5 36 -7 0 -8 13 -4 36 5 26 3 39 -7 45 -16 9 -39 -7 -39 -27 0
-8 -4 -22 -9 -32 -11 -19 -22 -81 -18 -97 1 -5 8 -9 15 -7 6 2 12 -4 12 -13 0
-8 7 -15 15 -15 18 0 19 -14 4 -42 -9 -16 -8 -19 2 -13 9 6 10 2 4 -16 -4 -13
-8 -34 -9 -46 0 -13 -2 -23 -3 -23 0 0 -13 20 -27 44 -31 53 -51 70 -36 30 6
-15 14 -32 17 -38 4 -6 6 -21 4 -33 -1 -13 2 -23 7 -23 14 0 15 -180 1 -197
-14 -16 -4 -124 12 -134 6 -4 13 -28 16 -55 2 -27 8 -58 13 -69 7 -19 17 -52
40 -142 5 -21 12 -85 15 -143 3 -58 10 -106 16 -108 12 -5 12 -42 -1 -42 -6 0
-14 10 -19 23 -7 19 -9 17 -8 -13 0 -19 -7 -51 -16 -69 -19 -37 -22 -61 -8
-61 5 0 11 18 15 40 4 23 11 38 16 35 14 -9 9 -96 -6 -120 -7 -11 -18 -54 -24
-95 -6 -41 -16 -84 -21 -96 -6 -12 -9 -32 -6 -45 4 -22 4 -22 6 4 0 15 5 27
11 27 16 0 24 -51 11 -72 -7 -11 -9 -33 -5 -54 5 -28 4 -33 -9 -28 -18 7 -20
0 -36 -118 -6 -42 -8 -98 -5 -123 7 -47 -10 -66 -20 -22 -2 12 -2 -4 0 -36 5
-56 2 -63 -28 -58 -5 0 -8 -10 -8 -23 0 -14 -4 -27 -9 -30 -5 -3 -12 -32 -15
-63 -7 -59 -21 -114 -37 -145 -15 -30 -11 -40 12 -27 17 9 23 8 30 -2 12 -19
11 -56 -2 -81 -10 -18 -9 -20 6 -14 15 5 16 2 10 -21 -5 -16 -7 -58 -6 -94 1
-49 -3 -70 -14 -79 -18 -15 -19 -43 -3 -70 10 -16 10 -25 -4 -47 -12 -20 -14
-33 -7 -46 12 -21 29 -22 29 -2 0 8 5 15 10 15 6 0 10 -6 10 -12 -1 -18 -25
-48 -38 -48 -6 0 -16 -10 -23 -21 -10 -20 -9 -21 20 -17 19 3 30 0 30 -6 -1
-6 6 -29 15 -50 15 -34 16 -47 6 -103 -13 -65 -15 -69 -39 -54 -23 15 -40 -18
-41 -76 0 -29 4 -53 9 -53 4 0 11 -26 15 -58 5 -48 3 -68 -14 -108 -15 -34
-19 -59 -15 -82 4 -21 1 -39 -7 -49 -17 -21 -38 -82 -38 -114 0 -14 -3 -29 -6
-32 -4 -4 -8 -34 -9 -67 -1 -33 -7 -66 -12 -72 -14 -18 -12 -48 3 -48 27 0 26
-47 -2 -106 -30 -63 -47 -53 -20 11 13 30 13 45 4 86 -6 27 -19 56 -29 65 -20
18 -20 18 -39 -81 -29 -148 -47 -183 -126 -232 -15 -9 156 -12 774 -12 l792
-1 0 2690 c0 1480 -4 2690 -8 2690 -4 0 -14 -6 -22 -14z m-203 -519 c7 -7 22
-60 34 -119 18 -88 19 -110 9 -123 -18 -22 -187 -138 -238 -164 -30 -16 -57
-21 -90 -19 -44 3 -47 5 -53 38 -16 79 37 228 111 313 53 59 132 100 180 92
19 -4 40 -12 47 -18z m-152 -595 c-8 -226 -8 -224 -54 -250 -38 -22 -84 -28
-115 -16 -36 14 -12 159 48 288 34 75 101 160 118 150 5 -3 6 -73 3 -172z"/>
<path d="M3115 5350 c-42 -19 -134 -25 -170 -11 -21 9 -44 1 -76 -27 -10 -9
-49 -33 -86 -52 -43 -23 -69 -43 -71 -55 -10 -55 -79 -90 -190 -98 -112 -9
-136 -21 -140 -72 -4 -51 -45 -94 -121 -131 -76 -35 -140 -90 -158 -133 -9
-20 -28 -50 -42 -67 -15 -17 -38 -63 -51 -103 -25 -80 -57 -114 -85 -91 -8 7
-15 16 -15 21 0 14 -44 79 -53 79 -23 0 -39 -41 -66 -170 -22 -103 -36 -150
-54 -173 -13 -18 -36 -55 -50 -84 -31 -61 -40 -68 -58 -47 -10 13 -10 21 0 47
17 41 72 208 118 357 62 202 77 231 153 306 38 38 86 77 106 87 33 17 42 18
76 6 35 -11 40 -10 61 8 12 12 45 32 74 47 35 18 57 36 68 58 8 18 32 44 52
58 21 14 45 32 54 40 8 8 24 20 35 26 18 11 18 13 -5 38 -14 14 -30 26 -37 26
-7 0 -57 -22 -111 -49 -54 -27 -127 -59 -163 -71 -36 -13 -80 -35 -99 -49 -87
-67 -111 -73 -163 -41 -18 11 -41 20 -51 20 -11 0 -21 9 -24 19 -3 11 -12 22
-21 26 -18 7 -145 -52 -208 -96 -54 -40 -60 -76 -17 -114 23 -19 26 -27 17
-41 -6 -10 -24 -22 -40 -27 -56 -19 -80 -43 -92 -97 -15 -65 -15 -127 -1 -132
33 -11 3 -304 -33 -340 -11 -11 -26 -51 -34 -91 -22 -107 -35 -137 -62 -144
-12 -3 -25 -4 -27 -2 -2 2 7 65 20 139 14 74 29 191 35 260 6 69 13 131 16
138 2 8 -5 26 -17 40 -13 17 -20 39 -19 62 3 54 1 60 -15 60 -22 0 -34 32 -28
78 3 23 2 42 -2 42 -15 0 -182 -94 -207 -118 -21 -19 -34 -23 -57 -19 -25 5
-31 3 -31 -11 -1 -17 -31 -112 -69 -212 -15 -39 -21 -79 -21 -140 -1 -47 -8
-114 -16 -150 -8 -36 -19 -141 -24 -235 -5 -93 -16 -285 -24 -425 -13 -232
-13 -256 2 -268 17 -13 82 -17 82 -4 0 4 21 21 46 37 53 33 89 74 108 120 8
18 31 56 52 84 63 84 87 63 60 -52 -10 -40 -26 -86 -36 -103 -27 -42 -90 -99
-147 -130 -76 -43 -83 -48 -83 -63 0 -31 -54 -168 -80 -206 -33 -45 -56 -123
-42 -137 15 -15 42 3 62 41 19 39 105 117 113 104 11 -18 -50 -144 -106 -218
-67 -90 -70 -97 -86 -179 -6 -32 -18 -71 -28 -85 -9 -14 -18 -39 -20 -55 -2
-17 -7 -32 -12 -35 -18 -13 -33 -56 -37 -109 -3 -32 -13 -86 -23 -122 -32
-109 -31 -136 6 -143 21 -5 33 0 46 15 22 26 28 20 29 -30 0 -27 -7 -50 -21
-68 -11 -15 -21 -35 -21 -46 0 -22 -57 -150 -71 -158 -9 -6 -43 -88 -56 -135
-3 -11 -11 -26 -17 -34 -6 -7 -27 -50 -46 -94 -29 -66 -40 -82 -63 -88 l-27
-7 0 112 c0 99 2 115 19 130 11 10 24 15 30 12 24 -15 38 25 45 126 8 124 33
285 76 473 30 132 48 246 53 324 l2 34 -165 0 c-135 1 -171 -2 -196 -16 -31
-16 -31 -16 -43 9 -9 21 -4 47 30 162 60 203 88 280 121 339 25 45 36 54 71
64 23 6 71 9 106 6 85 -7 111 3 111 42 0 32 -18 108 -43 182 -10 29 -16 86
-16 160 -1 63 -4 149 -7 192 -7 119 12 297 47 432 17 66 34 145 39 175 4 30
20 96 35 145 61 201 81 253 118 296 18 20 44 54 58 76 19 28 64 61 167 123
263 157 377 228 402 249 l25 20 -28 1 c-15 0 -96 -36 -185 -82 -86 -45 -204
-106 -262 -135 -58 -30 -116 -65 -130 -77 -14 -13 -40 -31 -57 -40 -31 -16
-74 -65 -135 -155 -30 -44 -68 -56 -68 -22 0 20 58 135 91 183 23 31 24 38 5
38 -23 0 -124 -123 -141 -170 -21 -59 -20 -74 5 -67 14 3 24 -1 31 -15 6 -11
7 -18 2 -15 -4 3 -9 -23 -10 -57 -1 -33 -13 -128 -27 -211 -14 -82 -28 -188
-31 -235 -3 -47 -8 -101 -10 -120 -5 -45 -22 -261 -36 -460 -22 -332 -21 -328
-118 -355 -31 -9 -77 -27 -102 -41 -56 -29 -83 -24 -76 15 7 42 56 251 72 311
8 30 15 83 15 118 0 49 6 73 24 105 16 27 30 77 40 143 28 178 22 176 -59 -16
-74 -178 -108 -250 -158 -329 -22 -36 -57 -99 -79 -139 l-38 -73 0 -360 c0
-261 3 -358 11 -353 7 4 9 0 6 -12 -9 -31 -11 -197 -3 -226 6 -22 14 -27 47
-30 25 -2 44 1 51 9 24 30 33 12 35 -69 3 -112 -2 -128 -33 -128 -13 0 -42 9
-64 20 -22 11 -42 20 -45 20 -3 0 -5 -406 -5 -903 l0 -902 39 -1 c47 -2 44
-12 66 196 8 80 20 179 25 220 6 41 13 95 16 120 3 25 11 79 19 120 15 87 27
160 55 360 21 147 27 180 54 305 9 39 27 142 42 230 25 150 74 338 95 360 15
16 10 42 -10 48 -11 2 -24 0 -29 -5 -6 -6 -17 -5 -32 4 -19 11 -21 19 -16 58
9 66 25 78 76 55 23 -10 46 -27 51 -38 19 -35 21 -202 3 -269 -18 -70 -35
-174 -94 -568 -5 -36 -12 -117 -16 -180 -9 -171 -13 -200 -29 -223 -8 -12 -15
-40 -15 -64 0 -23 -7 -71 -15 -106 -8 -36 -15 -75 -15 -88 1 -96 -10 -365 -15
-388 -4 -20 -1 -38 10 -54 18 -28 12 -99 -11 -118 -10 -8 -14 -8 -14 0 0 17
-17 13 -25 -6 -4 -10 -9 -31 -11 -47 -2 -17 -8 -32 -13 -35 -21 -14 -36 -203
-19 -241 l13 -30 109 0 109 0 -9 183 c-5 100 -9 360 -9 577 0 371 1 395 18
398 11 2 33 -13 57 -37 33 -34 40 -48 40 -82 0 -26 -8 -52 -21 -71 -20 -28
-21 -35 -10 -98 8 -50 8 -82 0 -122 -17 -79 -14 -372 4 -398 7 -11 17 -17 22
-12 4 4 5 -9 1 -28 -4 -19 -9 -97 -12 -172 l-5 -138 466 0 465 0 0 35 c0 33 3
36 68 66 45 20 75 28 92 24 14 -3 41 -9 60 -14 57 -12 76 -27 90 -70 l13 -41
219 0 c209 0 218 1 218 19 0 11 9 26 21 35 17 12 27 12 57 2 21 -7 41 -22 47
-34 7 -16 19 -22 44 -22 l34 0 -7 583 c-5 402 -4 617 4 697 14 150 21 754 9
895 -29 354 -165 626 -342 684 -24 8 -43 23 -52 41 -19 38 -19 50 5 80 27 34
25 53 -10 90 -22 23 -36 31 -57 28 -24 -3 -28 -8 -31 -40 -2 -25 -10 -41 -27
-52 -23 -15 -23 -15 -30 25 -5 31 -3 45 10 59 23 26 14 46 -26 54 -65 13 -75
45 -35 124 13 26 29 72 36 102 7 30 19 75 26 100 7 25 18 68 24 96 8 35 29 76
70 134 33 46 60 87 60 92 0 5 20 61 44 123 25 62 61 176 80 254 19 77 42 157
51 178 9 21 32 83 52 138 38 111 77 186 165 322 79 122 134 170 273 237 62 30
116 59 119 65 4 6 19 11 34 11 29 0 176 57 218 85 13 8 27 30 32 48 6 23 22
41 58 65 76 50 70 69 -11 32z m-1383 -1439 c84 -34 92 -49 54 -105 -13 -20
-37 -68 -52 -106 -19 -50 -32 -70 -45 -70 -10 0 -20 4 -24 9 -7 12 -84 65
-107 74 -22 8 -23 21 -1 53 21 32 45 77 71 132 12 23 23 42 26 42 2 0 38 -13
78 -29z m-117 -1305 c19 -19 35 -41 35 -49 0 -8 -41 -86 -92 -174 -50 -87 -97
-173 -105 -190 -7 -18 -19 -33 -27 -33 -17 0 -86 75 -86 95 0 7 6 18 13 22 12
7 77 125 170 306 16 31 35 57 43 57 7 0 29 -15 49 -34z m170 -194 c-5 -13 -12
-83 -18 -192 l-3 -35 -69 0 c-59 0 -70 3 -73 18 -3 16 51 134 67 147 3 3 15
22 26 42 10 21 26 39 35 41 24 5 42 -4 35 -21z m-566 -184 c23 -28 40 -54 39
-57 -70 -146 -78 -160 -96 -153 -26 10 -92 86 -92 106 0 9 15 47 33 86 41 88
59 91 116 18z m141 -837 c0 -16 -6 -31 -15 -35 -9 -3 -15 -18 -15 -38 0 -18
-7 -41 -15 -51 -7 -11 -11 -25 -8 -33 3 -10 -2 -14 -20 -14 -26 0 -24 -4 -56
133 -6 27 -9 53 -6 58 4 5 35 9 71 9 64 0 64 0 64 -29z m850 -157 c5 -5 5 -34
0 -69 -5 -33 -14 -105 -20 -160 -7 -55 -16 -108 -21 -118 -6 -10 -7 -32 -4
-49 l7 -31 -58 8 c-75 9 -77 11 -70 49 15 72 46 266 52 325 l7 63 49 -4 c27
-3 53 -9 58 -14z m-368 -573 c4 -4 3 -22 -2 -41 -6 -19 -10 -53 -10 -75 0 -60
-5 -62 -95 -56 l-80 6 2 30 c1 17 3 55 5 85 2 30 7 58 12 62 11 8 158 -2 168
-11z m-1518 -405 c21 -19 36 -43 36 -56 0 -62 -85 -82 -140 -33 -36 32 -38 61
-5 97 33 35 66 33 109 -8z"/>
<path d="M1845 5250 c-27 -16 -62 -32 -77 -35 -34 -8 -49 -32 -38 -59 5 -12
11 -30 15 -41 3 -11 9 -15 13 -9 4 6 52 26 107 46 60 21 101 42 103 51 3 14
-52 77 -66 77 -4 0 -29 -14 -57 -30z"/>
<path d="M6357 5214 c-38 -30 -83 -56 -102 -60 -19 -3 -45 -16 -59 -29 -14
-13 -44 -25 -70 -29 -29 -5 -50 -14 -56 -25 -9 -17 -41 -31 -81 -36 -8 -1 -24
-10 -35 -21 -10 -10 -39 -26 -64 -34 -25 -8 -52 -22 -61 -31 -9 -9 -30 -20
-45 -23 -16 -4 -40 -15 -54 -25 -20 -16 -22 -21 -11 -35 14 -17 14 -17 -38
-22 -19 -1 -55 -10 -80 -20 -48 -17 -116 -62 -108 -71 3 -2 1 -19 -5 -36 -5
-18 -11 -54 -12 -82 -3 -57 -14 -104 -29 -122 -6 -9 -5 -15 6 -19 8 -3 17 -18
20 -34 5 -23 10 -27 28 -23 19 5 20 4 10 -16 -7 -11 -15 -21 -19 -21 -13 0
-88 -74 -107 -104 -41 -67 -152 -359 -185 -486 -11 -41 -28 -106 -40 -145 -11
-38 -28 -99 -37 -135 -9 -36 -23 -81 -32 -100 -8 -19 -21 -66 -27 -105 -18
-99 -61 -247 -75 -256 -8 -5 -7 -8 2 -12 11 -3 9 -8 -6 -20 -11 -8 -23 -13
-26 -11 -4 2 9 77 28 166 19 90 41 192 48 228 22 109 84 347 130 495 47 155
71 260 79 348 5 63 -8 70 -17 10 -4 -21 -15 -56 -26 -78 -10 -22 -24 -69 -30
-105 -13 -77 -53 -226 -69 -256 -6 -12 -21 -66 -33 -120 -11 -55 -30 -121 -40
-149 -10 -27 -19 -62 -19 -77 0 -16 -4 -28 -8 -28 -5 0 -17 -34 -27 -75 -11
-41 -23 -75 -27 -75 -4 0 -8 -7 -8 -17 0 -9 -7 -39 -15 -67 -20 -67 -54 -205
-70 -286 -31 -152 -46 -218 -59 -265 -19 -67 -44 -180 -52 -234 -3 -24 -13
-59 -20 -77 -8 -18 -14 -49 -14 -69 0 -20 -15 -113 -34 -208 -40 -202 -43
-220 -51 -312 -8 -99 -35 -286 -45 -310 -4 -11 -13 -47 -20 -80 -6 -33 -17
-81 -25 -107 -7 -27 -9 -48 -4 -48 6 0 5 -9 -2 -21 -6 -12 -8 -30 -5 -42 3
-11 1 -28 -4 -37 -12 -23 -22 -96 -20 -154 0 -30 -5 -58 -15 -73 -10 -15 -14
-34 -11 -49 4 -13 -1 -41 -9 -61 -16 -38 -46 -214 -45 -265 0 -16 -4 -28 -10
-28 -5 0 -10 -12 -10 -26 0 -15 -4 -43 -9 -63 -5 -20 -17 -67 -27 -106 -9 -38
-23 -83 -31 -99 -10 -20 -11 -26 -2 -21 8 5 10 4 5 -4 -6 -10 -46 -163 -46
-177 0 -2 11 -4 25 -4 21 0 30 12 65 86 22 48 40 97 40 110 0 13 11 58 25 101
13 43 38 143 55 223 17 80 42 195 54 255 39 178 132 538 215 825 17 58 40 150
52 205 11 55 35 138 51 185 34 95 127 403 158 525 12 44 39 136 60 205 21 69
43 141 48 160 5 19 43 148 85 285 41 138 98 331 127 430 152 526 284 931 324
994 13 20 39 70 58 111 37 79 85 130 169 181 24 15 64 39 89 55 25 15 101 57
170 92 69 35 134 72 145 83 12 10 36 24 55 30 19 7 51 23 70 37 19 14 36 26
38 27 7 5 -18 53 -30 57 -7 3 -44 -19 -81 -48z m-895 -1020 c6 -5 -10 -49 -46
-129 -32 -70 -104 -301 -109 -350 -2 -17 -9 -40 -15 -52 -6 -11 -23 -65 -38
-119 -15 -55 -33 -121 -41 -149 -38 -126 -71 -260 -67 -267 3 -4 -1 -20 -9
-35 -15 -28 -70 -225 -70 -250 0 -7 -4 -13 -7 -13 -4 0 -13 -33 -19 -74 -6
-41 -20 -92 -32 -113 -12 -21 -23 -51 -26 -68 -2 -16 -7 -37 -10 -45 -3 -8 -8
-24 -10 -34 -2 -11 -8 -25 -13 -31 -14 -17 -40 -105 -40 -136 0 -14 -5 -30
-10 -35 -6 -6 -12 -21 -15 -33 -2 -12 -16 -43 -30 -68 -19 -34 -25 -60 -25
-104 0 -48 -4 -60 -21 -73 -12 -8 -18 -19 -15 -25 4 -5 -2 -15 -11 -21 -10 -6
-13 -13 -8 -16 6 -2 9 -22 7 -44 -3 -24 1 -47 9 -56 8 -10 9 -18 3 -22 -6 -4
-13 -14 -16 -22 -3 -8 -24 -25 -47 -38 -45 -25 -49 -21 -32 34 5 16 14 54 21
84 7 30 15 59 18 65 4 5 7 26 8 45 3 40 7 61 16 75 3 6 9 32 13 59 8 56 161
595 315 1106 16 52 49 165 75 250 25 85 66 215 91 289 55 164 159 385 175 375
7 -4 9 -3 6 4 -13 20 9 52 25 36z"/>
<path d="M9137 5173 c-9 -2 -15 -9 -12 -14 4 -5 -1 -9 -9 -9 -9 0 -16 -4 -16
-9 0 -5 -8 -12 -19 -16 -10 -3 -33 -19 -51 -36 -31 -30 -31 -31 -13 -52 10
-12 19 -24 20 -26 4 -6 92 47 131 80 l40 33 -21 28 c-11 15 -23 27 -26 27 -3
-1 -14 -3 -24 -6z"/>
<path d="M5980 5150 c0 -5 -7 -10 -15 -10 -19 0 -118 -49 -126 -62 -3 -5 -10
-10 -15 -10 -5 0 -13 -2 -19 -4 -25 -10 -153 -46 -177 -51 -16 -3 -28 -9 -28
-13 0 -4 -25 -18 -55 -30 -30 -12 -52 -26 -49 -31 3 -5 0 -9 -6 -9 -6 0 -16
-5 -23 -10 -7 -6 -46 -32 -87 -59 -130 -83 -163 -134 -117 -177 l25 -23 29 32
c16 18 44 51 61 74 19 24 53 51 80 64 26 12 61 32 77 44 17 12 72 43 123 70
52 26 126 67 166 89 41 23 101 53 135 66 61 24 76 42 45 54 -21 8 -24 8 -24
-4z"/>
<path d="M3582 4986 c-38 -42 -61 -119 -41 -142 6 -7 7 -19 3 -26 -9 -14 -10
-31 -18 -293 -3 -104 -10 -221 -15 -260 -13 -90 -25 -305 -17 -305 3 0 14 10
26 22 14 15 20 35 20 68 0 26 3 50 7 53 14 15 55 145 62 197 4 30 12 65 19 77
7 12 12 35 12 51 0 16 9 41 20 55 11 14 20 38 20 54 1 15 7 53 14 83 7 30 9
66 6 80 -4 14 -5 45 -2 69 4 38 3 43 -11 38 -17 -6 -34 22 -19 32 15 9 25 71
13 71 -6 0 -11 11 -11 24 0 13 -7 26 -15 30 -8 3 -15 12 -15 20 0 24 -37 26
-58 2z"/>
<path d="M8854 4969 c-34 -38 -66 -59 -89 -59 -8 0 -23 -8 -33 -18 -10 -10
-32 -24 -50 -31 -18 -7 -32 -20 -32 -28 0 -8 -4 -12 -9 -8 -14 8 -47 -45 -56
-90 -4 -22 -10 -34 -12 -27 -3 6 -9 10 -14 6 -5 -3 -9 0 -9 5 0 6 -5 11 -11
11 -6 0 -8 -7 -5 -16 3 -8 2 -13 -3 -9 -5 3 -18 -6 -29 -20 -11 -13 -22 -22
-25 -19 -3 3 -10 -4 -17 -15 -6 -12 -16 -21 -23 -21 -15 0 -66 -52 -88 -90
-16 -26 -49 -121 -49 -140 0 -6 -12 -37 -27 -68 -14 -31 -26 -62 -26 -69 0 -7
-4 -13 -9 -13 -4 0 -8 6 -8 13 0 8 -4 7 -10 -3 -5 -8 -10 -34 -10 -57 0 -23
-5 -45 -11 -49 -8 -4 -9 0 -4 15 9 29 -9 27 -23 -3 -7 -17 -7 -27 0 -34 8 -8
8 -15 1 -24 -16 -20 -27 -62 -14 -54 6 4 11 3 11 -3 0 -16 -18 -22 -23 -9 -8
20 -27 -11 -27 -44 0 -21 -4 -26 -17 -21 -13 5 -15 2 -11 -15 4 -15 2 -22 -9
-22 -8 0 -12 4 -9 9 4 5 2 20 -3 33 -8 20 -10 21 -16 6 -4 -10 -5 -25 -1 -33
9 -24 -5 -74 -18 -69 -13 5 -30 -23 -41 -66 -4 -17 -3 -21 3 -12 8 11 10 11
15 -1 3 -9 -6 -30 -23 -49 -17 -18 -30 -42 -30 -53 0 -16 -2 -17 -10 -5 -5 8
-12 11 -17 7 -12 -13 -12 -71 1 -80 7 -6 4 -7 -7 -3 -13 4 -18 1 -16 -12 3
-32 -1 -40 -33 -73 -18 -18 -32 -37 -30 -41 1 -5 -9 -23 -22 -41 -14 -18 -33
-53 -44 -78 -11 -25 -41 -68 -67 -95 -25 -27 -56 -62 -68 -78 -42 -55 -62 -74
-82 -78 -11 -2 -19 -10 -17 -17 1 -6 -9 -26 -22 -44 -13 -18 -28 -44 -31 -59
-9 -34 -36 -39 -28 -5 5 21 4 20 -19 -5 -14 -15 -28 -25 -32 -21 -3 4 -20 -8
-37 -27 -25 -27 -30 -40 -26 -65 4 -26 1 -33 -24 -48 -28 -16 -31 -15 -49 3
-24 24 -57 26 -80 5 -13 -12 -22 -13 -48 -3 -18 7 -32 16 -32 20 0 4 -33 8
-74 8 l-75 0 5 38 c5 35 25 153 45 267 15 83 18 106 24 220 5 83 12 116 26
136 13 20 16 37 12 63 -6 40 -20 48 -25 14 -2 -13 -9 -22 -16 -20 -6 1 -12 -2
-12 -8 0 -5 0 -13 0 -17 0 -5 4 -8 9 -8 5 0 13 -3 17 -7 3 -4 -3 -6 -14 -3
-17 3 -22 -4 -32 -45 -6 -26 -13 -59 -14 -72 -7 -58 -18 -108 -24 -108 -10 0
-34 -58 -38 -89 -2 -14 -11 -99 -21 -188 l-17 -163 -35 -1 -36 -1 36 -10 c26
-7 36 -14 33 -26 -4 -20 -13 -128 -14 -159 0 -18 -6 -23 -27 -24 -28 -1 -28
-1 -3 -8 30 -8 30 -2 -5 -391 -8 -91 -17 -192 -20 -225 -6 -64 -14 -144 -20
-185 -2 -14 -7 -70 -11 -125 -8 -119 -15 -142 -46 -148 -21 -4 -20 -4 4 -6
l28 -1 -5 -127 c-4 -107 -3 -118 5 -68 6 33 13 74 15 92 l6 32 52 -5 c29 -3
54 -7 57 -7 3 -1 5 2 5 7 0 5 -24 11 -54 13 -30 1 -55 4 -57 5 -1 2 6 64 17
138 10 74 19 153 19 175 0 62 6 66 93 62 42 -1 79 -5 82 -8 3 -4 -7 -73 -21
-155 -15 -82 -27 -155 -27 -163 0 -8 -9 -16 -19 -19 -40 -10 -8 -27 73 -38 46
-7 112 -19 147 -27 44 -10 62 -11 59 -3 -4 13 -158 55 -204 55 -22 1 -33 6
-33 16 0 20 34 19 150 -5 52 -11 96 -20 98 -20 1 0 2 4 2 9 0 8 -132 45 -202
56 -24 4 -38 11 -38 20 0 19 8 19 129 -6 89 -18 125 -20 110 -5 -2 2 -51 14
-109 26 -137 29 -130 27 -124 43 4 11 15 12 52 6 114 -22 158 -31 175 -35 9
-3 17 -1 17 5 0 12 -79 35 -172 51 -65 11 -81 21 -58 35 9 5 135 -14 208 -32
12 -3 22 -1 22 5 0 6 -44 20 -97 32 -121 27 -135 32 -125 47 6 9 34 6 115 -11
65 -14 106 -18 104 -12 -4 11 -39 22 -150 48 -61 14 -74 34 -22 32 17 -1 64
-9 107 -18 61 -14 77 -22 83 -39 5 -18 9 -13 25 31 18 50 18 55 3 70 -10 11
-18 13 -20 6 -3 -8 -34 -3 -95 13 -51 13 -94 25 -96 27 -2 3 5 9 15 14 12 6
42 4 93 -8 41 -10 77 -16 80 -14 8 9 -24 23 -78 35 -29 7 -51 17 -49 23 4 13
45 13 100 2 55 -12 46 9 -10 24 -45 11 -47 12 -28 26 11 8 26 12 33 9 34 -13
62 -16 62 -8 0 5 -12 14 -27 19 l-28 10 33 17 c30 16 43 37 24 37 -15 0 -125
-75 -191 -130 -41 -34 -61 -46 -58 -34 4 11 22 82 41 159 20 77 54 208 76 290
96 352 87 333 123 279 24 -35 136 -128 145 -120 2 2 -4 21 -12 41 -21 50 -20
53 9 25 14 -13 25 -32 25 -41 0 -11 5 -16 13 -13 24 9 92 -73 106 -127 8 -29
18 -49 27 -49 8 0 11 -6 8 -15 -11 -28 11 -15 24 15 12 26 11 32 -2 46 -9 8
-16 19 -16 23 0 5 -23 31 -51 59 -43 43 -50 54 -39 67 10 12 9 18 -4 30 -9 9
-16 21 -16 27 0 5 -7 8 -15 4 -19 -7 -101 28 -108 46 -2 7 -8 10 -12 6 -4 -4
-4 -13 1 -21 5 -7 -1 -1 -13 13 -27 29 -28 43 -8 60 22 18 18 40 -6 40 -19 0
-20 2 -8 16 8 9 21 37 30 63 19 56 33 59 37 9 2 -29 0 -38 -12 -38 -9 0 -16
-9 -16 -20 0 -30 13 -25 62 23 24 23 66 59 94 79 66 48 220 217 250 274 31 59
114 163 181 230 29 28 59 67 67 86 8 19 38 74 67 123 45 78 98 205 129 310 4
17 17 57 28 90 11 33 30 94 43 135 27 88 173 400 187 400 6 0 15 14 21 30 5
17 14 30 18 30 4 0 35 25 68 56 33 31 93 80 133 110 39 30 72 57 72 60 0 6
-76 -34 -100 -52 -8 -6 -26 -15 -40 -18 -37 -10 35 35 145 91 50 25 91 46 93
48 1 1 -1 19 -6 40 l-7 38 -31 -34z m-1735 -2127 c3 -5 22 -14 41 -19 48 -13
61 -42 55 -127 -10 -130 -46 -236 -141 -414 -31 -56 -54 -108 -52 -114 4 -11
98 144 98 161 0 5 4 12 9 15 4 3 -14 -74 -40 -172 -27 -97 -51 -196 -55 -220
-6 -39 -9 -43 -30 -38 -12 3 -26 2 -29 -4 -3 -5 -20 -10 -36 -10 -21 0 -32 6
-39 23 -7 17 -9 18 -9 5 -1 -18 -26 -25 -34 -10 -3 4 -1 34 4 67 4 33 13 114
19 180 6 66 22 201 35 300 13 99 26 200 29 225 3 25 10 72 16 105 5 33 10 62
10 64 0 9 143 -7 149 -17z"/>
<path d="M6956 2570 c-3 -14 -8 -50 -11 -80 -4 -30 -8 -62 -11 -70 -3 -12 8
-15 56 -16 33 -1 60 -1 60 0 0 1 5 29 10 62 6 32 13 73 15 91 l6 31 -60 4
c-58 3 -61 2 -65 -22z"/>
<path d="M4198 4753 c-10 -2 -18 -12 -18 -22 0 -22 -41 -43 -61 -30 -20 12
-22 12 -48 -13 -21 -19 -22 -22 -8 -33 15 -11 14 -14 -7 -34 -20 -19 -23 -30
-19 -59 6 -32 2 -39 -33 -69 -34 -29 -37 -35 -24 -46 26 -21 40 -55 40 -96 0
-37 11 -51 41 -51 14 0 81 152 76 172 -3 9 2 27 11 39 11 16 12 24 4 27 -14 4
-16 42 -3 42 6 0 20 27 32 60 12 33 28 65 35 71 8 6 14 20 14 30 0 19 -2 20
-32 12z"/>
<path d="M8948 4634 c-16 -17 -28 -43 -28 -57 0 -14 -4 -29 -10 -32 -5 -3 -10
-12 -10 -18 0 -7 4 -6 10 3 6 9 10 10 10 3 0 -6 3 -20 6 -30 5 -15 4 -16 -5
-3 -10 13 -12 13 -21 0 -15 -24 -12 -43 6 -36 12 5 15 2 10 -10 -3 -8 -6 -22
-6 -30 0 -8 -9 -14 -21 -14 -15 0 -19 -5 -14 -19 6 -21 -49 -158 -72 -177 -13
-11 -66 -124 -61 -130 2 -1 41 49 86 113 76 107 83 121 92 184 10 69 39 155
65 192 9 12 11 25 6 31 -5 6 -11 22 -13 36 l-3 26 -27 -32z"/>
<path d="M476 4544 c-36 -57 -155 -352 -163 -402 l-5 -37 35 35 c51 49 157
300 164 388 3 34 4 62 2 62 -2 -1 -17 -21 -33 -46z"/>
<path d="M8618 4503 c-16 -8 -28 -20 -28 -28 0 -7 -5 -26 -12 -42 -6 -15 -13
-32 -14 -38 -8 -23 -33 -135 -44 -195 -6 -36 -15 -69 -20 -74 -5 -5 -6 -14 -4
-21 3 -7 1 -16 -5 -20 -18 -10 -12 -23 8 -18 19 5 30 24 97 177 24 54 59 120
78 146 l34 48 -24 23 c-13 12 -24 28 -24 35 0 20 -13 22 -42 7z"/>
<path d="M7335 4434 c-44 -152 -72 -254 -68 -254 2 0 23 19 46 43 24 23 62 57
85 75 48 39 52 59 18 99 -13 15 -33 43 -44 62 l-20 33 -17 -58z"/>
<path d="M4286 4298 c-10 -15 -16 -35 -14 -45 2 -10 -2 -17 -9 -16 -7 2 -19
-10 -28 -26 -8 -16 -24 -32 -35 -36 -28 -9 -28 -61 0 -68 27 -7 25 -21 -5 -41
-14 -9 -25 -22 -25 -28 0 -6 -7 -20 -17 -30 -12 -13 -16 -36 -16 -81 1 -49 -3
-66 -18 -80 -10 -10 -19 -31 -19 -47 0 -16 -4 -31 -9 -34 -9 -6 -26 -73 -23
-92 1 -7 -8 -14 -20 -18 -21 -6 -22 -7 -6 -19 22 -17 14 -87 -13 -116 -20 -21
-25 -46 -11 -55 14 -8 59 46 67 79 6 28 11 62 14 103 0 9 13 30 27 45 30 32
46 80 38 113 -3 12 -1 25 5 28 6 4 11 20 11 35 0 16 6 34 14 40 14 12 19 27
31 90 2 13 13 34 23 45 30 33 53 93 54 136 0 22 4 40 9 40 15 0 32 42 21 49
-6 4 -15 17 -20 31 l-9 24 -17 -26z"/>
<path d="M3824 4233 c-17 -31 -19 -44 -11 -70 10 -33 -5 -69 -23 -58 -12 8
-22 -32 -15 -55 4 -12 0 -31 -7 -43 -14 -23 -13 -61 2 -52 13 8 -1 -38 -17
-57 -8 -9 -13 -27 -12 -40 3 -26 -10 -88 -21 -103 -4 -5 -11 -39 -15 -75 -7
-70 -18 -117 -41 -166 -7 -17 -18 -62 -23 -98 -5 -37 -15 -74 -21 -81 -6 -8
-10 -22 -8 -33 3 -18 -3 -33 -44 -117 -17 -34 -18 -48 -10 -97 8 -52 7 -58 -8
-58 -20 0 -37 -75 -21 -94 8 -9 8 -56 2 -108 -1 -5 -7 -8 -14 -8 -7 0 -18 -9
-25 -20 -10 -17 -9 -23 10 -42 l22 -22 -27 -9 c-31 -10 -34 -24 -10 -42 16
-12 15 -15 -10 -48 -15 -20 -27 -40 -27 -45 0 -5 -7 -15 -16 -23 -10 -8 -13
-21 -9 -37 5 -22 3 -24 -18 -18 -17 4 -27 1 -31 -9 -7 -19 10 -28 39 -21 33 8
42 -11 16 -35 -28 -26 -29 -63 -1 -56 11 3 22 1 25 -3 3 -5 -18 -12 -47 -17
-50 -8 -53 -10 -54 -38 -1 -16 5 -44 12 -62 16 -37 18 -55 4 -33 -5 8 -12 12
-15 8 -4 -3 1 -18 10 -32 16 -24 16 -25 -8 -31 -31 -8 -42 -43 -21 -67 15 -15
15 -19 0 -39 -11 -16 -12 -26 -5 -35 12 -15 -10 -94 -28 -101 -8 -3 -10 -16
-6 -34 3 -17 0 -35 -7 -44 -7 -8 -10 -21 -7 -29 3 -8 0 -19 -7 -25 -22 -19
-29 -88 -10 -115 15 -23 14 -25 -10 -41 -26 -17 -34 -49 -16 -60 17 -10 11
-33 -10 -40 -16 -5 -18 -10 -10 -25 7 -13 7 -21 -1 -25 -6 -4 -8 -13 -5 -21 3
-8 0 -14 -6 -14 -6 0 -3 -9 8 -21 17 -19 18 -22 2 -33 -11 -8 -15 -20 -11 -35
3 -13 -1 -29 -12 -41 -9 -10 -14 -24 -10 -30 4 -7 -2 -14 -14 -17 -24 -6 -23
-28 0 -28 23 0 28 -28 9 -50 -22 -25 -33 -84 -20 -100 8 -9 6 -17 -5 -28 -8
-9 -15 -27 -15 -41 0 -18 -5 -26 -17 -26 -14 0 -13 -4 7 -25 20 -21 21 -27 9
-41 -8 -10 -15 -38 -16 -63 -2 -58 -7 -91 -17 -114 -5 -10 -3 -23 4 -32 10
-12 10 -18 1 -29 -9 -11 -10 -20 -1 -35 9 -18 7 -21 -15 -27 -14 -3 -34 -4
-44 -1 -14 3 -18 1 -14 -9 3 -8 14 -14 24 -14 18 0 26 -19 19 -45 -2 -5 -3
-19 -4 -30 -2 -29 -15 -45 -37 -45 -22 0 -26 -25 -4 -34 18 -7 20 -47 3 -64
-9 -9 -8 -12 5 -12 11 0 17 -8 17 -25 0 -28 -20 -35 -20 -7 -1 15 -2 15 -18
-3 -10 -12 -26 -19 -39 -17 -15 2 -23 -2 -23 -12 0 -24 18 -28 46 -9 25 16 27
16 40 -2 16 -21 13 -41 -5 -38 -6 2 -11 -6 -11 -17 0 -14 -7 -20 -22 -20 -28
-1 -62 -25 -54 -38 3 -6 0 -12 -8 -15 -9 -4 -12 -15 -8 -33 3 -19 1 -25 -7
-20 -7 4 -18 2 -26 -4 -20 -16 -19 -31 0 -24 8 4 22 1 30 -6 8 -6 23 -9 34 -5
33 10 44 -3 27 -31 -34 -51 -10 -74 75 -74 43 0 50 2 40 14 -7 8 -11 32 -10
53 2 21 -1 44 -5 51 -4 7 -1 15 8 18 10 4 16 18 16 38 0 17 4 38 10 46 5 9 5
19 -1 27 -8 8 -7 23 0 45 10 31 13 68 11 138 -3 72 7 159 19 173 7 9 10 21 7
26 -4 6 3 27 14 48 11 21 20 46 20 55 0 19 2 29 50 229 17 70 27 134 24 143
-3 9 0 26 8 39 19 28 27 72 17 89 -5 7 -2 22 7 36 8 12 14 28 13 35 -2 6 4 25
11 40 11 22 11 33 3 46 -9 14 -8 22 5 35 10 10 17 35 18 67 1 31 7 54 15 60 9
5 13 27 13 63 -1 31 2 56 6 56 8 0 19 59 23 126 1 22 10 52 20 67 9 14 17 42
17 61 0 19 5 38 11 42 6 3 8 17 5 30 -4 13 3 48 15 81 11 32 25 81 30 108 5
28 14 59 19 70 8 19 19 95 24 161 1 17 9 43 19 57 9 14 17 46 17 69 0 24 6 55
14 69 7 14 16 54 20 90 4 35 12 69 18 76 6 7 8 23 5 35 -6 21 4 80 26 148 6
19 14 55 18 80 5 25 13 74 20 110 6 36 11 75 10 87 0 11 5 23 13 26 7 3 23 24
35 48 18 34 21 52 16 90 -6 41 -4 49 16 62 23 16 32 56 27 112 -1 17 -2 65 -2
108 -1 74 -2 77 -25 77 l-24 0 25 20 c14 11 28 32 31 47 6 30 -11 63 -28 57
-7 -3 -18 3 -26 12 -13 16 -11 17 14 12 15 -3 27 -2 28 1 0 3 3 26 5 51 3 25
9 59 13 75 4 17 6 56 3 88 -3 45 -1 62 13 76 14 17 15 23 3 45 l-14 27 -20
-38z"/>
<path d="M8610 3463 c-8 -13 -13 -14 -16 -5 -3 6 -11 12 -18 12 -16 0 -17 -32
-2 -42 8 -6 6 -11 -4 -18 -8 -5 -11 -10 -5 -10 5 0 4 -5 -3 -12 -7 -7 -12 -19
-12 -28 0 -21 -59 -140 -69 -140 -5 0 -7 -8 -5 -17 3 -10 -3 -43 -13 -73 -14
-42 -23 -56 -40 -58 -24 -4 -29 -14 -38 -82 -4 -25 -12 -52 -20 -60 -19 -23
-27 -57 -17 -77 10 -20 5 -43 -9 -43 -6 0 -15 14 -20 30 -17 46 -28 36 -24
-22 2 -36 7 -52 15 -50 8 2 10 -3 6 -13 -3 -9 -6 -21 -6 -26 0 -5 -6 -9 -13
-9 -23 0 -76 -86 -88 -142 -6 -29 -14 -60 -18 -68 -9 -17 -26 -88 -41 -171 -7
-37 -19 -64 -35 -79 -14 -13 -25 -27 -25 -32 0 -22 -44 -102 -74 -136 -18 -20
-45 -64 -61 -97 -15 -33 -30 -62 -34 -65 -3 -3 -15 -23 -26 -45 -11 -21 -31
-52 -44 -68 -14 -17 -24 -41 -23 -58 1 -35 -17 -48 -34 -25 -16 22 -22 11 -21
-42 0 -24 -5 -53 -10 -65 -70 -152 -67 -148 -140 -153 -22 -2 -58 -12 -79 -23
-21 -12 -44 -21 -50 -21 -15 0 -95 -37 -117 -54 -17 -13 -16 -14 11 -24 34
-12 70 -87 46 -96 -17 -6 -19 -66 -3 -66 7 0 9 -10 4 -27 -13 -52 -15 -88 -6
-108 5 -11 14 -33 20 -48 6 -16 16 -25 22 -22 20 13 35 -26 32 -82 -3 -53 -2
-54 19 -48 13 4 27 11 33 16 16 16 44 10 55 -12 7 -11 9 -23 6 -26 -3 -3 1
-15 9 -27 8 -11 15 -28 15 -38 0 -29 26 -21 40 12 10 25 9 33 -9 58 -23 33
-20 43 27 109 12 17 22 33 22 35 0 11 -125 104 -171 127 -44 22 -54 33 -70 75
-10 28 -17 51 -15 53 5 5 35 -42 46 -72 13 -35 35 -41 61 -16 13 12 25 21 28
21 12 -1 37 -26 44 -42 3 -10 13 -18 22 -18 8 0 15 -4 15 -10 0 -5 4 -10 9
-10 16 0 92 -78 89 -92 -2 -9 7 -12 30 -10 23 1 31 -1 26 -9 -4 -7 0 -9 13 -5
15 5 31 -4 59 -29 22 -19 42 -35 45 -35 3 0 23 -16 44 -35 20 -20 51 -43 68
-52 18 -8 48 -30 68 -47 75 -64 120 -98 125 -94 2 3 -26 31 -63 64 -37 32 -90
82 -118 109 -28 28 -70 61 -94 75 -36 21 -40 26 -21 28 14 3 28 20 45 57 14
30 25 57 25 60 0 4 18 28 40 54 44 52 50 80 20 88 -24 6 -26 35 -5 57 8 8 15
19 15 25 0 6 4 11 9 11 6 0 20 18 32 40 13 22 26 40 31 40 8 0 38 53 38 70 0
5 -7 10 -16 10 -12 0 -14 5 -9 18 5 9 13 43 18 75 10 50 14 57 34 57 24 0 31
14 13 25 -6 4 -8 15 -5 25 4 11 -1 20 -12 24 -17 7 -17 8 0 17 11 7 17 22 17
44 0 24 5 35 15 35 18 0 19 12 3 28 -9 9 -8 15 7 25 10 8 15 19 11 25 -3 6 3
17 15 26 15 10 20 21 16 35 -3 11 -1 19 5 18 5 -1 11 19 12 46 2 26 11 59 21
73 14 22 15 28 4 35 -12 8 -11 12 3 22 11 9 14 18 7 28 -13 20 -11 42 3 33 7
-4 8 -3 4 4 -4 6 -13 9 -21 5 -21 -7 -19 27 2 42 10 8 16 25 15 46 -3 60 9
109 25 109 13 0 15 8 9 47 -5 36 -2 51 10 65 10 10 17 31 16 48 0 16 4 32 9
35 5 4 9 24 9 45 0 21 5 42 10 45 6 3 10 19 10 35 0 16 4 31 10 35 5 3 7 11 4
18 -3 8 2 27 11 43 8 16 15 34 15 41 0 6 7 18 15 27 16 16 38 104 36 145 -1
14 3 27 8 30 13 9 24 81 11 81 -5 0 -10 4 -10 10 0 5 6 7 14 4 7 -3 20 6 30
20 19 29 21 49 3 25 -7 -8 -20 -18 -29 -22 -14 -5 -16 -3 -9 11 38 73 56 156
39 179 -8 10 1 63 19 109 7 20 -14 18 -27 -3z m-274 -1364 c-11 -72 -32 -108
-70 -124 -76 -32 -130 -5 -124 63 3 41 37 67 117 88 80 22 85 20 77 -27z"/>
<path d="M7890 3092 c0 -5 -11 -14 -25 -20 -14 -7 -28 -19 -32 -28 -11 -30
-84 -100 -90 -86 -8 20 -33 -5 -33 -33 0 -21 -14 -41 -74 -107 -38 -41 -71
-115 -58 -131 5 -7 13 -27 17 -44 5 -26 12 -33 31 -33 26 0 64 -49 64 -83 0
-37 18 -5 30 55 8 35 24 82 36 106 12 23 28 59 35 80 7 20 24 64 39 97 24 54
80 214 80 229 0 3 -4 6 -10 6 -5 0 -10 -4 -10 -8z"/>
<path d="M5366 2978 c-7 -31 -9 -55 -7 -107 1 -33 4 -42 15 -38 10 4 13 1 9
-9 -3 -8 -10 -14 -17 -13 -26 3 -34 -2 -29 -21 3 -11 1 -26 -5 -33 -5 -6 -13
-33 -16 -59 -4 -29 -14 -52 -24 -58 -15 -8 -14 -9 6 -10 26 0 28 -12 7 -34 -9
-8 -15 -19 -14 -23 4 -24 -2 -53 -10 -48 -6 3 -7 -9 -4 -30 4 -23 2 -35 -6
-35 -6 0 -11 -11 -11 -24 0 -14 -4 -28 -10 -31 -5 -3 -7 -19 -3 -36 4 -20 0
-35 -11 -48 -12 -13 -18 -42 -21 -100 -5 -124 -16 -211 -26 -211 -5 0 -9 -9
-9 -19 0 -10 -7 -21 -14 -24 -11 -4 -13 -13 -7 -34 10 -36 -5 -187 -24 -234
-8 -20 -12 -39 -10 -41 3 -2 0 -20 -6 -39 -6 -19 -13 -47 -15 -63 -2 -16 -11
-34 -19 -40 -11 -8 -17 -32 -20 -74 -4 -65 -11 -86 -25 -77 -5 3 -11 1 -15 -5
-3 -6 4 -14 17 -19 13 -6 21 -10 18 -11 -3 -1 -16 -4 -29 -6 -36 -7 -39 -14
-5 -14 22 0 26 -3 14 -10 -13 -9 -13 -11 0 -19 12 -8 9 -12 -12 -20 -31 -12
-40 -32 -21 -46 12 -9 12 -16 2 -40 -6 -17 -12 -47 -13 -67 -1 -36 -26 -80
-26 -47 0 12 -2 12 -10 -1 -14 -22 -12 -27 10 -33 25 -6 18 -30 -13 -46 -12
-6 -14 -9 -4 -7 21 6 22 -12 2 -38 -8 -11 -15 -28 -15 -38 0 -10 -5 -18 -12
-18 -6 0 -4 -6 7 -13 17 -13 15 -14 -16 -22 l-34 -8 30 -7 30 -7 -34 -4 c-19
-2 -36 -10 -39 -17 -2 -7 0 -11 5 -10 4 2 9 0 11 -5 5 -11 -9 -70 -19 -83 -5
-7 -4 -24 2 -43 8 -23 8 -35 0 -45 -7 -8 -14 -27 -17 -42 -3 -16 -9 -31 -13
-34 -5 -3 -8 -14 -8 -25 2 -67 -3 -85 -23 -85 -11 0 -20 -5 -20 -11 0 -6 7 -9
15 -5 8 3 15 1 15 -5 0 -19 -21 -104 -30 -121 -6 -11 -5 -18 3 -21 7 -3 -1 -6
-17 -6 -27 -1 -28 -3 -22 -36 7 -36 -9 -50 -21 -18 -5 14 -8 13 -15 -6 -9 -25
-1 -71 13 -71 5 0 4 -9 -3 -20 -12 -20 -13 -19 -19 12 l-6 33 -10 -25 c-6 -14
-7 -27 -2 -28 5 -2 9 -11 9 -19 0 -9 -6 -13 -15 -9 -10 3 -15 -1 -15 -12 0
-10 -7 -28 -16 -40 l-15 -22 344 0 344 1 16 39 c13 34 13 40 1 40 -20 0 -17
28 4 33 13 4 11 5 -5 6 -13 0 -23 6 -23 11 0 6 8 10 18 8 11 -2 16 3 14 14 -2
12 2 16 13 12 8 -3 15 -2 15 4 0 5 -10 13 -22 17 -14 4 -18 8 -10 12 19 8 14
23 -9 23 -14 0 -24 -10 -32 -30 -6 -16 -15 -30 -19 -30 -12 0 -10 24 4 38 8 8
8 15 -2 27 -12 14 -11 18 1 26 12 8 12 10 -1 20 -13 9 -12 10 2 5 10 -3 20 -1
23 4 5 9 -14 14 -36 12 -4 -1 -2 9 4 23 7 13 16 23 22 22 5 -1 9 4 7 12 -1 7
1 18 6 25 15 18 23 66 12 66 -5 0 -9 -3 -9 -7 3 -20 -2 -24 -15 -14 -11 10
-16 8 -21 -8 -7 -24 -25 -28 -25 -6 0 8 4 15 10 15 5 0 12 16 16 35 3 20 12
42 20 49 11 12 11 16 -3 28 -15 11 -16 11 -10 -5 3 -9 2 -17 -4 -17 -20 0 -3
35 19 38 12 2 22 10 22 19 0 9 -6 13 -15 9 -8 -3 -22 -3 -30 1 -14 5 -14 8 2
25 10 11 16 32 15 49 -2 21 2 29 14 29 14 0 14 3 4 15 -10 12 -10 19 -2 27 7
7 12 27 12 44 0 18 6 36 13 41 8 5 0 10 -23 13 -23 3 -36 11 -38 23 -3 14 1
18 15 13 23 -7 51 8 34 19 -9 5 -9 10 -1 20 8 9 8 15 0 20 -5 3 -10 17 -10 31
0 28 -16 33 -23 7 -3 -11 -5 -7 -6 10 0 15 4 27 10 27 8 0 8 4 0 14 -9 11 -8
15 4 20 9 3 13 10 10 16 -3 5 6 15 20 22 26 12 26 12 6 20 -28 10 -38 38 -20
52 8 6 16 20 17 31 2 11 9 26 14 33 6 7 8 16 4 20 -4 4 -16 -4 -27 -18 -20
-24 -20 -24 -14 -3 5 18 3 22 -10 17 -13 -5 -15 -2 -9 22 4 15 13 38 19 51 13
24 9 73 -5 73 -5 0 -7 41 -6 91 1 49 -1 92 -6 95 -11 7 -10 82 2 89 6 3 10 19
10 35 0 16 4 31 10 35 10 6 9 90 -3 101 -15 15 -7 54 11 54 13 0 14 2 3 9 -14
9 -7 51 9 51 5 0 6 8 3 17 -5 13 -2 15 11 10 15 -6 16 1 11 75 -3 45 -8 85
-11 90 -3 4 3 5 13 1 16 -6 16 -5 4 11 -11 13 -11 20 -3 28 15 15 15 55 0 64
-7 5 -4 10 11 16 12 4 19 12 16 18 -4 6 6 11 22 11 22 1 24 3 6 6 -29 6 -53
33 -29 33 10 0 25 -4 35 -9 15 -8 17 -5 17 27 1 20 -1 29 -3 20 -8 -32 -19
-19 -15 17 3 21 0 35 -7 35 -10 0 -16 -27 -12 -57 2 -16 -17 -26 -36 -19 -12
5 -13 9 -4 20 9 11 9 15 -1 20 -9 4 -6 10 10 22 17 13 22 26 22 60 0 37 3 44
20 44 11 0 21 5 21 10 1 6 2 15 3 20 0 6 6 9 11 8 6 -2 10 -44 10 -100 0 -53
3 -100 7 -104 16 -16 28 51 22 120 -7 69 -7 130 -2 171 2 13 -3 20 -12 19 -11
-1 -15 11 -16 47 0 26 3 46 8 43 4 -3 8 0 8 5 0 6 -9 11 -20 11 -17 0 -18 3
-10 26 13 32 12 37 0 29 -5 -3 -10 2 -10 12 -1 10 -10 43 -21 73 -11 30 -23
63 -26 73 -5 15 -8 16 -15 5 -6 -8 -7 -2 -3 20 7 36 -2 45 -9 10z"/>
<path d="M3945 2321 c-3 -16 -13 -32 -21 -35 -10 -4 -13 -13 -8 -31 7 -29 -17
-64 -45 -66 -10 0 -12 -2 -4 -6 14 -5 8 -48 -9 -70 -6 -7 -7 -25 -4 -39 5 -19
2 -30 -11 -39 -14 -11 -16 -18 -7 -32 12 -20 2 -47 -26 -70 -13 -10 -13 -12 3
-18 21 -9 23 -34 2 -41 -26 -10 -55 -156 -34 -170 14 -8 1 -43 -27 -73 -26
-28 -29 -42 -13 -58 7 -7 2 -28 -18 -69 -15 -32 -32 -62 -37 -66 -6 -4 1 -15
14 -26 18 -15 22 -23 14 -33 -6 -8 -9 -28 -7 -46 2 -20 -2 -33 -12 -37 -11 -4
-14 -13 -9 -31 4 -17 2 -27 -10 -31 -11 -4 -14 -14 -10 -34 4 -15 1 -31 -5
-34 -6 -4 -11 -18 -11 -30 0 -13 -10 -31 -22 -40 l-23 -17 28 6 c24 5 28 3 25
-12 -2 -10 -8 -18 -15 -18 -6 0 -15 -3 -19 -7 -4 -5 -1 -8 8 -8 23 0 17 -64
-10 -95 -23 -27 -28 -45 -12 -45 22 0 10 -47 -15 -58 -14 -6 -25 -16 -25 -21
0 -16 20 -23 34 -12 13 11 26 5 26 -10 0 -5 -12 -15 -27 -23 -24 -12 -26 -15
-10 -21 25 -10 21 -34 -9 -45 -14 -6 -23 -14 -20 -19 4 -5 2 -20 -3 -33 -7
-19 -4 -27 17 -44 25 -20 26 -24 13 -48 -8 -14 -20 -26 -28 -26 -16 0 -17 -12
-1 -28 8 -8 8 -12 1 -12 -16 0 -24 -42 -10 -58 10 -13 8 -14 -11 -8 -28 9 -29
-8 0 -28 18 -13 19 -17 8 -31 -8 -9 -26 -23 -42 -31 -33 -17 -37 -34 -8 -34
12 0 20 -7 21 -17 1 -13 3 -11 7 5 7 22 28 32 26 12 -1 -5 -2 -24 -2 -41 -2
-23 -6 -30 -17 -25 -9 3 -15 0 -15 -10 0 -12 -7 -14 -30 -9 -20 4 -30 3 -30
-6 0 -8 12 -10 40 -6 31 4 40 2 40 -10 0 -9 -9 -14 -22 -13 -51 4 -61 1 -48
-15 9 -10 9 -15 1 -15 -20 0 -11 -19 10 -22 24 -3 48 -33 36 -44 -4 -4 -24
-10 -44 -14 -22 -3 -37 -11 -35 -18 1 -7 -3 -12 -9 -12 -19 0 2 -20 38 -35 19
-8 55 -15 79 -15 43 0 44 1 46 33 1 17 1 41 1 52 0 11 4 23 9 26 5 3 11 37 13
75 2 38 11 95 19 127 9 32 16 78 16 103 0 24 7 61 15 82 11 24 14 50 10 74 -6
31 -4 38 9 38 9 0 16 5 16 10 0 6 -5 10 -11 10 -13 0 -2 58 15 79 6 8 11 39
12 70 0 31 5 80 11 109 6 29 6 55 2 58 -14 8 -10 62 4 71 7 4 19 46 26 93 7
47 14 94 16 105 10 64 27 194 29 217 1 15 5 30 9 34 4 4 7 21 7 37 0 16 4 46
10 66 5 20 18 84 30 143 11 58 24 118 30 133 5 14 10 44 10 65 0 21 5 42 10
45 6 4 7 11 4 17 -7 11 7 87 33 176 8 29 12 63 9 76 -3 13 1 31 9 42 19 25 20
84 1 84 -8 0 -17 -13 -21 -29z"/>
<path d="M3088 2245 c-35 -106 -64 -215 -77 -295 -20 -115 -41 -303 -36 -308
15 -15 39 35 52 110 8 45 21 117 28 158 7 41 17 89 23 106 6 19 6 37 0 48 -7
12 -3 26 12 51 16 25 20 43 15 64 -4 20 -1 38 11 56 13 20 15 33 7 58 -9 32
-10 31 -35 -48z"/>
<path d="M7430 1622 c-14 -9 -52 -43 -84 -74 -42 -40 -57 -62 -52 -73 4 -12
13 -15 30 -11 25 6 50 -14 28 -22 -13 -4 -17 -42 -4 -42 17 1 142 206 142 235
0 11 -36 4 -60 -13z"/>
<path d="M6757 1014 c-10 -34 -30 -255 -23 -261 3 -4 6 1 6 10 0 13 8 15 49
10 l49 -6 7 49 c3 27 10 76 15 110 16 99 16 98 -33 91 -26 -4 -48 -2 -54 4 -8
8 -13 6 -16 -7z"/>
<path d="M7298 750 c4 -92 2 -113 -11 -128 -10 -11 -21 -58 -30 -137 l-14
-120 -45 -47 c-24 -25 -57 -70 -72 -98 -26 -47 -28 -59 -24 -122 l5 -70 -31
-13 c-28 -12 -20 -13 87 -13 104 1 117 3 111 17 -16 40 -10 46 49 51 31 3 57
4 57 2 0 -2 -11 -18 -25 -34 -32 -38 -24 -50 12 -17 l26 24 -6 -22 c-3 -13 -2
-23 3 -23 4 0 11 12 15 28 l7 27 14 -27 c8 -16 19 -28 24 -28 15 0 12 11 -10
48 -23 37 -19 49 36 95 l31 26 -9 -62 c-4 -34 -10 -72 -13 -85 -3 -12 -1 -22
5 -22 5 0 10 2 10 4 0 3 7 37 15 77 9 40 12 80 9 89 -9 19 -11 27 -13 45 -1
11 -19 15 -76 17 l-74 3 47 49 c35 37 48 45 50 33 2 -9 8 -17 13 -17 6 0 7 9
4 20 -5 15 -2 20 12 21 15 0 14 2 -4 9 -27 11 -76 110 -67 134 4 10 1 28 -6
42 -15 28 -32 32 -24 7 3 -10 -6 2 -19 27 -24 46 -26 57 -8 45 6 -3 11 -15 11
-26 0 -11 5 -17 10 -14 6 4 8 11 4 16 -3 6 -7 20 -9 32 -3 22 -73 239 -79 245
-2 1 -1 -47 2 -108z"/>
<path d="M6464 827 c20 -15 19 -32 -19 -327 -8 -63 -19 -155 -26 -205 -6 -50
-14 -111 -18 -137 l-8 -47 49 -17 c27 -9 51 -14 53 -13 1 2 6 44 9 94 13 182
37 482 45 553 5 50 4 72 -4 72 -6 0 -28 9 -50 20 -45 23 -56 26 -31 7z"/>
<path d="M7904 772 c-10 -9 -46 -36 -79 -59 -53 -38 -61 -41 -76 -27 -19 18
-119 36 -119 22 0 -6 7 -25 16 -44 13 -26 21 -33 35 -29 15 5 19 1 19 -19 0
-15 4 -34 9 -44 11 -21 32 -135 34 -179 0 -18 5 -33 10 -33 5 0 7 42 4 101 -5
113 1 191 14 183 5 -3 9 -17 9 -32 0 -15 7 -49 14 -77 l14 -50 1 42 c1 23 6
54 11 69 l11 27 22 -44 c19 -38 27 -44 56 -47 52 -5 86 -61 39 -63 -17 -1 -18
-3 -6 -6 9 -2 20 -13 23 -24 12 -36 36 -18 41 30 12 99 33 168 60 196 17 17
17 19 -14 44 -112 92 -115 93 -148 63z"/>
<path d="M7594 700 c4 -41 16 -109 26 -150 27 -106 67 -296 74 -355 4 -27 10
-59 13 -70 5 -17 2 -16 -16 5 l-23 25 7 -25 c4 -14 12 -49 18 -77 12 -57 21
-66 31 -30 13 49 0 136 -59 387 -28 121 -36 165 -44 253 -5 49 -14 94 -21 100
-10 10 -11 -3 -6 -63z"/>
<path d="M6882 683 c3 -19 0 -29 -5 -26 -5 3 -7 0 -5 -8 3 -8 1 -25 -4 -38 -5
-13 -11 -125 -14 -250 -6 -224 -10 -251 -42 -251 -13 0 -14 18 -8 139 l7 139
-38 -14 c-62 -22 -63 -21 -64 54 l-2 67 -8 -90 c-5 -49 -11 -143 -15 -207 l-6
-118 -34 0 c-36 0 -48 -22 -18 -34 8 -3 13 -10 10 -15 -4 -5 2 -12 11 -14 11
-3 8 -5 -9 -6 -20 -1 -26 3 -22 14 4 8 2 15 -4 15 -5 0 -12 -9 -15 -20 -5 -19
-2 -21 46 -18 l52 3 3 46 c3 49 14 59 70 59 20 0 22 -5 24 -57 1 -58 1 -58 7
-14 3 25 12 46 20 49 11 4 13 -5 8 -44 -4 -34 -3 -42 3 -27 12 28 20 30 13 3
-5 -19 0 -20 74 -20 l80 0 11 78 c6 42 14 111 17 152 3 41 8 81 11 89 2 7 -4
20 -13 27 -17 13 -17 13 0 14 18 0 25 30 7 30 -5 0 -10 5 -10 10 0 6 7 10 15
10 23 0 18 16 -10 34 -19 12 -24 23 -20 37 4 12 2 19 -7 19 -10 0 -9 3 2 10
13 8 13 10 -2 10 -9 0 -20 5 -24 11 -5 8 1 10 18 7 23 -4 24 -2 19 26 -4 19
-16 35 -29 41 -24 11 -29 34 -10 53 16 16 7 23 -37 27 -21 2 -42 9 -47 17 -6
9 -8 3 -6 -19z"/>
<path d="M8239 498 c-3 -83 -11 -123 -39 -189 -16 -39 -30 -81 -30 -93 1 -16
4 -13 16 13 9 21 18 31 24 25 15 -15 -7 -148 -34 -203 l-24 -51 74 0 74 0 0
64 c0 35 4 66 10 68 5 2 11 19 14 38 2 19 14 70 26 112 l22 78 31 -26 c32 -27
70 -29 75 -3 3 18 -109 133 -171 174 -50 34 -67 32 -68 -7z"/>
<path d="M7957 372 c-10 -10 -17 -24 -17 -30 0 -7 -7 -12 -15 -12 -9 0 -15 -9
-15 -24 0 -47 -21 -86 -46 -86 -16 0 -24 -6 -25 -17 -1 -10 -2 -33 -4 -50 -3
-35 14 -46 22 -15 6 25 43 48 53 33 5 -9 14 -9 34 -1 24 9 28 15 24 41 -3 16
-1 32 4 35 21 13 6 30 -22 26 -25 -4 -29 -1 -24 13 5 11 15 15 29 12 19 -3 24
2 29 26 13 66 4 83 -27 49z"/>
</g>
</svg>
